<svg width="88" height="76" viewBox="0 0 88 76" fill="none" xmlns="http://www.w3.org/2000/svg">
<g opacity="0.4" clip-path="url(#clip0_2862_16867)">
<path opacity="0.2" d="M52.4211 61.9094C52.2544 61.6319 52.0187 61.4023 51.7369 61.243C51.4552 61.0836 51.137 60.9999 50.8133 61H36.875C36.3777 61 35.9008 60.8025 35.5492 60.4508C35.1975 60.0992 35 59.6223 35 59.125V29.125C35 28.6277 35.1975 28.1508 35.5492 27.7992C35.9008 27.4475 36.3777 27.25 36.875 27.25H78.125C78.6223 27.25 79.0992 27.4475 79.4508 27.7992C79.8025 28.1508 80 28.6277 80 29.125V59.125C80 59.6223 79.8025 60.0992 79.4508 60.4508C79.0992 60.8025 78.6223 61 78.125 61H64.1867C63.863 60.9999 63.5448 61.0836 63.2631 61.243C62.9813 61.4023 62.7456 61.6319 62.5789 61.9094L59.1078 67.5906C58.9412 67.8683 58.7056 68.0981 58.4238 68.2576C58.1421 68.4171 57.8238 68.501 57.5 68.501C57.1762 68.501 56.8579 68.4171 56.5762 68.2576C56.2944 68.0981 56.0588 67.8683 55.8922 67.5906L52.4211 61.9094Z" fill="white"/>
<path d="M52.4211 61.9094C52.2544 61.6319 52.0187 61.4023 51.7369 61.243C51.4552 61.0836 51.137 60.9999 50.8133 61H36.875C36.3777 61 35.9008 60.8025 35.5492 60.4508C35.1975 60.0992 35 59.6223 35 59.125V29.125C35 28.6277 35.1975 28.1508 35.5492 27.7992C35.9008 27.4475 36.3777 27.25 36.875 27.25H78.125C78.6223 27.25 79.0992 27.4475 79.4508 27.7992C79.8025 28.1508 80 28.6277 80 29.125V59.125C80 59.6223 79.8025 60.0992 79.4508 60.4508C79.0992 60.8025 78.6223 61 78.125 61H64.1867C63.863 60.9999 63.5448 61.0836 63.2631 61.243C62.9813 61.4023 62.7456 61.6319 62.5789 61.9094L59.1078 67.5906C58.9412 67.8683 58.7056 68.0981 58.4238 68.2576C58.1421 68.4171 57.8238 68.501 57.5 68.501C57.1762 68.501 56.8579 68.4171 56.5762 68.2576C56.2944 68.0981 56.0588 67.8683 55.8922 67.5906L52.4211 61.9094Z" stroke="white" stroke-width="2.5" stroke-linecap="round" stroke-linejoin="round"/>
<path d="M50 40.375H65" stroke="white" stroke-width="2.5" stroke-linecap="round" stroke-linejoin="round"/>
<path d="M50 47.875H65" stroke="white" stroke-width="2.5" stroke-linecap="round" stroke-linejoin="round"/>
</g>
<g clip-path="url(#clip1_2862_16867)">
<path d="M25.4211 45.9094C25.2544 45.6319 25.0187 45.4023 24.7369 45.243C24.4552 45.0836 24.137 44.9999 23.8133 45H9.875C9.37772 45 8.90081 44.8025 8.54918 44.4508C8.19754 44.0992 8 43.6223 8 43.125V13.125C8 12.6277 8.19754 12.1508 8.54918 11.7992C8.90081 11.4475 9.37772 11.25 9.875 11.25H51.125C51.6223 11.25 52.0992 11.4475 52.4508 11.7992C52.8025 12.1508 53 12.6277 53 13.125V43.125C53 43.6223 52.8025 44.0992 52.4508 44.4508C52.0992 44.8025 51.6223 45 51.125 45H37.1867C36.863 44.9999 36.5448 45.0836 36.2631 45.243C35.9813 45.4023 35.7456 45.6319 35.5789 45.9094L32.1078 51.5906C31.9412 51.8683 31.7056 52.0981 31.4238 52.2576C31.1421 52.4171 30.8238 52.501 30.5 52.501C30.1762 52.501 29.8579 52.4171 29.5762 52.2576C29.2944 52.0981 29.0588 51.8683 28.8922 51.5906L25.4211 45.9094Z" fill="#404040"/>
<path d="M25.4211 45.9094C25.2544 45.6319 25.0187 45.4023 24.7369 45.243C24.4552 45.0836 24.137 44.9999 23.8133 45H9.875C9.37772 45 8.90081 44.8025 8.54918 44.4508C8.19754 44.0992 8 43.6223 8 43.125V13.125C8 12.6277 8.19754 12.1508 8.54918 11.7992C8.90081 11.4475 9.37772 11.25 9.875 11.25H51.125C51.6223 11.25 52.0992 11.4475 52.4508 11.7992C52.8025 12.1508 53 12.6277 53 13.125V43.125C53 43.6223 52.8025 44.0992 52.4508 44.4508C52.0992 44.8025 51.6223 45 51.125 45H37.1867C36.863 44.9999 36.5448 45.0836 36.2631 45.243C35.9813 45.4023 35.7456 45.6319 35.5789 45.9094L32.1078 51.5906C31.9412 51.8683 31.7056 52.0981 31.4238 52.2576C31.1421 52.4171 30.8238 52.501 30.5 52.501C30.1762 52.501 29.8579 52.4171 29.5762 52.2576C29.2944 52.0981 29.0588 51.8683 28.8922 51.5906L25.4211 45.9094Z" stroke="white" stroke-width="2.5" stroke-linecap="round" stroke-linejoin="round"/>
<path d="M23 24.375H38" stroke="white" stroke-width="2.5" stroke-linecap="round" stroke-linejoin="round"/>
<path d="M23 31.875H38" stroke="white" stroke-width="2.5" stroke-linecap="round" stroke-linejoin="round"/>
</g>
<defs>
<clipPath id="clip0_2862_16867">
<rect width="60" height="60" fill="white" transform="translate(27.5 16)"/>
</clipPath>
<clipPath id="clip1_2862_16867">
<rect width="60" height="60" fill="white" transform="translate(0.5)"/>
</clipPath>
</defs>
</svg>
