<svg width="40" height="40" viewBox="0 0 40 40" fill="none" xmlns="http://www.w3.org/2000/svg">
<g clip-path="url(#clip0_1731_34723)">
<path d="M20.0005 3.75C16.7865 3.75 13.6448 4.70305 10.9725 6.48862C8.30018 8.27419 6.21738 10.8121 4.98745 13.7814C3.75753 16.7507 3.43572 20.018 4.06273 23.1702C4.68974 26.3224 6.23741 29.2179 8.51001 31.4905C10.7826 33.7631 13.6781 35.3107 16.8303 35.9378C19.9825 36.5648 23.2498 36.243 26.2191 35.013C29.1884 33.7831 31.7263 31.7003 33.5119 29.028C35.2974 26.3557 36.2505 23.2139 36.2505 20C36.2459 15.6916 34.5324 11.561 31.486 8.51454C28.4395 5.46806 24.3089 3.75455 20.0005 3.75ZM27.1349 17.1344L18.3849 25.8844C18.2688 26.0006 18.1309 26.0928 17.9792 26.1557C17.8274 26.2186 17.6648 26.251 17.5005 26.251C17.3362 26.251 17.1736 26.2186 17.0218 26.1557C16.8701 26.0928 16.7322 26.0006 16.6161 25.8844L12.8661 22.1344C12.6316 21.8998 12.4998 21.5817 12.4998 21.25C12.4998 20.9183 12.6316 20.6002 12.8661 20.3656C13.1007 20.1311 13.4188 19.9993 13.7505 19.9993C14.0822 19.9993 14.4003 20.1311 14.6349 20.3656L17.5005 23.2328L25.3661 15.3656C25.4823 15.2495 25.6201 15.1574 25.7719 15.0945C25.9236 15.0317 26.0863 14.9993 26.2505 14.9993C26.4147 14.9993 26.5774 15.0317 26.7291 15.0945C26.8809 15.1574 27.0187 15.2495 27.1349 15.3656C27.251 15.4818 27.3431 15.6196 27.406 15.7714C27.4688 15.9231 27.5012 16.0858 27.5012 16.25C27.5012 16.4142 27.4688 16.5769 27.406 16.7286C27.3431 16.8804 27.251 17.0182 27.1349 17.1344Z" fill="white"/>
</g>
<defs>
<clipPath id="clip0_1731_34723">
<rect width="40" height="40" fill="white" transform="translate(0.000488281)"/>
</clipPath>
</defs>
</svg>
