<svg width="100" height="100" viewBox="0 0 100 100" fill="none" xmlns="http://www.w3.org/2000/svg">
<path d="M44.5509 6.36276C45.1729 5.58922 45.9603 4.96506 46.8553 4.53622C47.7502 4.10738 48.7299 3.88477 49.7222 3.88477C50.7144 3.88477 51.6941 4.10738 52.5891 4.53622C53.484 4.96506 54.2714 5.58922 54.8935 6.36276L61.0502 14.0261C61.7474 14.8955 62.6524 15.5752 63.6814 16.0024C64.7105 16.4296 65.8305 16.5906 66.9381 16.4705L76.7106 15.4072C77.6999 15.2972 78.7012 15.4113 79.6405 15.741C80.5797 16.0706 81.4328 16.6074 82.1366 17.3116C82.8405 18.0158 83.377 18.8694 83.7065 19.8091C84.0359 20.7488 84.1499 21.7507 84.04 22.7405L82.9773 32.5182C82.8573 33.6265 83.0182 34.7471 83.4452 35.7767C83.8722 36.8063 84.5515 37.7117 85.4204 38.4093L93.0796 44.5693C93.8528 45.1917 94.4766 45.9795 94.9052 46.8749C95.3338 47.7704 95.5563 48.7505 95.5563 49.7434C95.5563 50.7362 95.3338 51.7164 94.9052 52.6118C94.4766 53.5072 93.8528 54.2951 93.0796 54.9174L85.396 61.0489C84.5273 61.7477 83.8482 62.6538 83.4213 63.684C82.9944 64.7142 82.8333 65.8353 82.9529 66.944L84.0156 76.7218C84.1263 77.7118 84.0128 78.7139 83.6836 79.654C83.3544 80.5942 82.8179 81.448 82.1139 82.1524C81.4099 82.8568 80.5565 83.3936 79.6169 83.7229C78.6773 84.0523 77.6756 84.1658 76.6862 84.0551L66.9137 82.9918C65.806 82.8713 64.6859 83.0321 63.6568 83.4594C62.6276 83.8866 61.7228 84.5665 61.0257 85.4362L54.8935 93.071C54.2719 93.8452 53.4846 94.47 52.5896 94.8993C51.6946 95.3286 50.7147 95.5514 49.7222 95.5514C48.7296 95.5514 47.7497 95.3286 46.8547 94.8993C45.9597 94.47 45.1724 93.8452 44.5509 93.071L38.3982 85.4118C37.7001 84.5423 36.7944 83.8627 35.7647 83.4355C34.735 83.0083 33.6144 82.8473 32.5062 82.9673L22.7337 84.0307C21.7441 84.1422 20.7421 84.0292 19.8021 83.7001C18.8622 83.371 18.0084 82.8343 17.3042 82.1297C16.6 81.4252 16.0636 80.5709 15.7346 79.6305C15.4057 78.69 15.2928 77.6875 15.4043 76.6973L16.467 66.9196C16.587 65.8108 16.4261 64.6896 15.9991 63.6594C15.5722 62.6291 14.8929 61.723 14.0239 61.0244L6.36875 54.8685C5.59495 54.2466 4.97051 53.4589 4.54145 52.5634C4.11239 51.6679 3.88965 50.6875 3.88965 49.6945C3.88965 48.7014 4.11239 47.721 4.54145 46.8255C4.97051 45.9301 5.59495 45.1423 6.36875 44.5204L14.0239 38.3604C14.8931 37.663 15.5727 36.7577 15.9997 35.728C16.4267 34.6983 16.5874 33.5776 16.467 32.4693L15.4043 22.6916C15.2936 21.7016 15.4071 20.6995 15.7363 19.7593C16.0655 18.8192 16.602 17.9654 17.3059 17.261C18.0099 16.5566 18.8634 16.0198 19.803 15.6905C20.7426 15.3611 21.7442 15.2475 22.7337 15.3583L32.5062 16.4216C33.6144 16.5413 34.7349 16.3801 35.7645 15.9529C36.7941 15.5258 37.6998 14.8463 38.3982 13.9772L44.5509 6.36276Z" fill="url(#paint0_radial_2865_14730)" stroke="#D7DAF4" stroke-width="6.66667"/>
<g filter="url(#filter0_d_2865_14730)">
<path d="M30.5557 49.9998L40.139 60.1104C40.3971 60.4088 40.7437 60.6552 41.1497 60.829C41.5557 61.0029 42.0095 61.0992 42.4734 61.1099C42.9372 61.1206 43.3976 61.0455 43.8163 60.8907C44.2351 60.7359 44.6 60.5059 44.8807 60.22L66.6668 38.8887" stroke="white" stroke-width="8.33333" stroke-linecap="round" stroke-linejoin="round" shape-rendering="crispEdges"/>
</g>
<defs>
<filter id="filter0_d_2865_14730" x="21.9442" y="30.2782" width="55.5554" height="41.6658" filterUnits="userSpaceOnUse" color-interpolation-filters="sRGB">
<feFlood flood-opacity="0" result="BackgroundImageFix"/>
<feColorMatrix in="SourceAlpha" type="matrix" values="0 0 0 0 0 0 0 0 0 0 0 0 0 0 0 0 0 0 127 0" result="hardAlpha"/>
<feOffset dx="1.11111" dy="1.11111"/>
<feGaussianBlur stdDeviation="2.77778"/>
<feComposite in2="hardAlpha" operator="out"/>
<feColorMatrix type="matrix" values="0 0 0 0 0 0 0 0 0 0 0 0 0 0 0 0 0 0 0.4 0"/>
<feBlend mode="normal" in2="BackgroundImageFix" result="effect1_dropShadow_2865_14730"/>
<feBlend mode="normal" in="SourceGraphic" in2="effect1_dropShadow_2865_14730" result="shape"/>
</filter>
<radialGradient id="paint0_radial_2865_14730" cx="0" cy="0" r="1" gradientUnits="userSpaceOnUse" gradientTransform="translate(82.8248 87.9125) rotate(-124.114) scale(95.3417 105.83)">
<stop offset="0.047703" stop-color="#474962"/>
<stop offset="0.5" stop-color="#8B8DA4"/>
<stop offset="1" stop-color="#BDC3F5"/>
</radialGradient>
</defs>
</svg>
